<svg width="16" height="16" viewBox="0 0 16 16" fill="none" xmlns="http://www.w3.org/2000/svg">
<path d="M11.1667 8.44032L5.83337 14.4403C5.71659 14.5728 5.55202 14.6535 5.37579 14.6647C5.19955 14.676 5.02606 14.6169 4.89338 14.5003C4.76092 14.3835 4.68021 14.219 4.66896 14.0427C4.65771 13.8665 4.71684 13.693 4.83338 13.5603L9.77337 8.00032L4.83338 2.44032C4.72562 2.30654 4.67367 2.13633 4.68834 1.96518C4.70302 1.79402 4.7832 1.63514 4.91216 1.52166C5.04111 1.40818 5.2089 1.34885 5.38053 1.35606C5.55215 1.36326 5.71438 1.43643 5.83337 1.56032L11.1667 7.56032C11.2736 7.68198 11.3325 7.83838 11.3325 8.00032C11.3325 8.16226 11.2736 8.31866 11.1667 8.44032Z" fill="#6C5DD3"/>
</svg>
