<svg width="89" height="83" viewBox="0 0 89 83" fill="none" xmlns="http://www.w3.org/2000/svg">
<g clip-path="url(#clip0_119_2)">
<path d="M62.57 83.0003C62.22 83.0003 61.45 83.0003 61.1 82.6503H60.75L38 73.1303L15.32 82.6503C13.85 83.3503 12.03 83.0003 10.91 82.3003C9.79 81.6003 9.09 80.1303 9.09 78.6603V27.3503C9.09 19.3003 15.32 13.0703 23.37 13.0703H52.7C60.75 13.0703 66.98 19.3003 66.98 27.3503V78.6603C66.98 80.1303 66.28 81.6003 65.16 82.3003C64.39 82.6503 63.27 83.0003 62.57 83.0003ZM23.37 20.0003C19.73 20.0003 16.44 23.2903 16.44 26.9303V74.1803L38 65.0803L59.63 74.2503V26.9303C59.63 23.2903 56.34 20.0003 52.7 20.0003H23.37Z" fill="#6C5DD3"/>
</g>
<circle cx="67" cy="22" r="22" fill="#FF754C"/>
<path d="M76.39 21.6C76.6647 21.3192 76.856 20.9676 76.9425 20.5845C77.0291 20.2013 77.0074 19.8016 76.88 19.43C76.7605 19.0573 76.5387 18.7257 76.2399 18.4729C75.9411 18.2201 75.5774 18.0562 75.19 18L70.9 17.34C70.88 17.3342 70.8616 17.324 70.846 17.3102C70.8304 17.2963 70.8181 17.2792 70.81 17.26L68.93 13.26C68.7652 12.8855 68.4949 12.5669 68.1523 12.3432C67.8096 12.1195 67.4093 12.0003 67 12C66.5955 11.9983 66.1992 12.1135 65.8585 12.3317C65.5179 12.5499 65.2476 12.8619 65.08 13.23L63.2 17.23C63.1898 17.2495 63.1756 17.2667 63.1584 17.2805C63.1412 17.2942 63.1213 17.3043 63.1 17.31L58.82 18C58.4321 18.0578 58.0679 18.2221 57.7677 18.4745C57.4676 18.727 57.2434 19.0577 57.12 19.43C56.9973 19.8029 56.9791 20.2023 57.0672 20.5848C57.1553 20.9673 57.3465 21.3184 57.62 21.6L60.78 24.85C60.7891 24.8705 60.7938 24.8926 60.7938 24.915C60.7938 24.9374 60.7891 24.9596 60.78 24.98L60.04 29.52C59.9712 29.9154 60.0161 30.3222 60.1694 30.6931C60.3226 31.064 60.578 31.3838 60.9059 31.6152C61.2337 31.8467 61.6205 31.9804 62.0213 32.0007C62.4221 32.021 62.8205 31.9272 63.17 31.73L66.9 29.66C66.9186 29.6504 66.9391 29.6453 66.96 29.6453C66.9809 29.6453 67.0015 29.6504 67.02 29.66L70.75 31.73C71.1001 31.9229 71.4973 32.0134 71.8963 31.9913C72.2954 31.9691 72.6801 31.835 73.0066 31.6045C73.3331 31.374 73.5882 31.0563 73.7426 30.6877C73.897 30.319 73.9447 29.9144 73.88 29.52L73.19 25C73.1795 24.9818 73.174 24.9611 73.174 24.94C73.174 24.919 73.1795 24.8983 73.19 24.88L76.39 21.6Z" fill="white"/>
<defs>
<clipPath id="clip0_119_2">
<rect width="70" height="70" fill="white" transform="translate(3 13)"/>
</clipPath>
</defs>
</svg>
