<svg width="265" height="65" viewBox="0 0 265 65" fill="none" xmlns="http://www.w3.org/2000/svg">
<circle cx="32.5" cy="32.5" r="30.5" fill="#C4C4C4" stroke="white" stroke-width="4"/>
<circle cx="82.5" cy="32.5" r="30.5" fill="#C4C4C4" stroke="white" stroke-width="4"/>
<circle cx="132.5" cy="32.5" r="30.5" fill="#C4C4C4" stroke="white" stroke-width="4"/>
<circle cx="182.5" cy="32.5" r="30.5" fill="#C4C4C4" stroke="white" stroke-width="4"/>
<circle cx="232.5" cy="32.5" r="30.5" fill="#6C5DD3" stroke="white" stroke-width="4"/>
<path d="M215.72 38.84H223.624V36.984H218.904C220.76 35.416 223.368 33.304 223.368 30.6C223.368 28.568 222.104 27.08 219.592 27.08C217.496 27.08 215.784 28.312 215.704 30.984H217.88C217.896 29.752 218.488 28.984 219.56 28.984C220.664 28.984 221.128 29.688 221.128 30.728C221.128 32.872 218.36 34.936 215.72 37.176V38.84ZM226.316 39H228.62V27.336H224.764V29.4H226.316V39ZM231.088 39H233.328V35.224L236.336 39H239.248L235.312 34.584L239.216 30.136H236.304L233.328 33.896V27.16H231.088V39ZM243.664 29.224V32.328H240.64V34.28H243.664V37.384H245.776V34.28H248.8V32.328H245.776V29.224H243.664Z" fill="white"/>
</svg>
