<svg width="152" height="24" viewBox="0 0 152 24" fill="none" xmlns="http://www.w3.org/2000/svg">
<path d="M21.39 11.6C21.6647 11.3192 21.856 10.9676 21.9425 10.5845C22.029 10.2013 22.0074 9.80161 21.88 9.43002C21.7605 9.05733 21.5387 8.72569 21.2399 8.47288C20.9411 8.22006 20.5773 8.05622 20.19 8.00002L15.9 7.34002C15.88 7.33422 15.8615 7.32403 15.846 7.31019C15.8304 7.29635 15.8181 7.27921 15.81 7.26002L13.93 3.26002C13.7651 2.88546 13.4949 2.56692 13.1522 2.34321C12.8096 2.11949 12.4092 2.00025 12 2.00002C11.5955 1.99835 11.1991 2.11353 10.8585 2.33173C10.5179 2.54993 10.2476 2.86186 10.08 3.23002L8.2 7.23002C8.18974 7.24952 8.17556 7.26669 8.15835 7.28046C8.14114 7.29423 8.12128 7.30429 8.1 7.31002L3.82 8.00002C3.43209 8.05781 3.06782 8.22206 2.7677 8.47452C2.46757 8.72698 2.24336 9.05774 2.12 9.43002C1.9973 9.8029 1.97902 10.2023 2.06716 10.5848C2.15531 10.9673 2.34649 11.3184 2.62 11.6L5.78 14.85C5.7891 14.8705 5.7938 14.8926 5.7938 14.915C5.7938 14.9374 5.7891 14.9596 5.78 14.98L5.04 19.52C4.9712 19.9154 5.01605 20.3222 5.16932 20.6931C5.3226 21.064 5.578 21.3838 5.90583 21.6152C6.23367 21.8467 6.62048 21.9804 7.02128 22.0007C7.42209 22.021 7.82043 21.9272 8.17 21.73L11.9 19.66C11.9185 19.6504 11.9391 19.6453 11.96 19.6453C11.9809 19.6453 12.0015 19.6504 12.02 19.66L15.75 21.73C16.1 21.9229 16.4973 22.0134 16.8963 21.9913C17.2954 21.9691 17.6801 21.835 18.0066 21.6045C18.3331 21.374 18.5881 21.0563 18.7426 20.6877C18.897 20.319 18.9446 19.9144 18.88 19.52L18.19 15C18.1795 14.9818 18.1739 14.9611 18.1739 14.94C18.1739 14.919 18.1795 14.8983 18.19 14.88L21.39 11.6Z" fill="#FF754C"/>
<path d="M53.39 11.6C53.6647 11.3192 53.856 10.9676 53.9425 10.5845C54.029 10.2013 54.0074 9.80161 53.88 9.43002C53.7605 9.05733 53.5387 8.72569 53.2399 8.47288C52.9411 8.22006 52.5773 8.05622 52.19 8.00002L47.9 7.34002C47.88 7.33422 47.8615 7.32403 47.846 7.31019C47.8304 7.29635 47.8181 7.27921 47.81 7.26002L45.93 3.26002C45.7651 2.88546 45.4949 2.56692 45.1522 2.34321C44.8096 2.11949 44.4092 2.00025 44 2.00002C43.5955 1.99835 43.1991 2.11353 42.8585 2.33173C42.5179 2.54993 42.2476 2.86186 42.08 3.23002L40.2 7.23002C40.1897 7.24952 40.1756 7.26669 40.1584 7.28046C40.1411 7.29423 40.1213 7.30429 40.1 7.31002L35.82 8.00002C35.4321 8.05781 35.0678 8.22206 34.7677 8.47452C34.4676 8.72698 34.2434 9.05774 34.12 9.43002C33.9973 9.8029 33.979 10.2023 34.0672 10.5848C34.1553 10.9673 34.3465 11.3184 34.62 11.6L37.78 14.85C37.7891 14.8705 37.7938 14.8926 37.7938 14.915C37.7938 14.9374 37.7891 14.9596 37.78 14.98L37.04 19.52C36.9712 19.9154 37.0161 20.3222 37.1693 20.6931C37.3226 21.064 37.578 21.3838 37.9058 21.6152C38.2337 21.8467 38.6205 21.9804 39.0213 22.0007C39.4221 22.021 39.8204 21.9272 40.17 21.73L43.9 19.66C43.9185 19.6504 43.9391 19.6453 43.96 19.6453C43.9809 19.6453 44.0015 19.6504 44.02 19.66L47.75 21.73C48.1 21.9229 48.4973 22.0134 48.8963 21.9913C49.2954 21.9691 49.6801 21.835 50.0066 21.6045C50.3331 21.374 50.5881 21.0563 50.7426 20.6877C50.897 20.319 50.9446 19.9144 50.88 19.52L50.19 15C50.1795 14.9818 50.1739 14.9611 50.1739 14.94C50.1739 14.919 50.1795 14.8983 50.19 14.88L53.39 11.6Z" fill="#FF754C"/>
<path d="M85.39 11.6C85.6647 11.3192 85.856 10.9676 85.9425 10.5845C86.029 10.2013 86.0074 9.80161 85.88 9.43002C85.7605 9.05733 85.5387 8.72569 85.2399 8.47288C84.9411 8.22006 84.5773 8.05622 84.19 8.00002L79.9 7.34002C79.88 7.33422 79.8615 7.32403 79.846 7.31019C79.8304 7.29635 79.8181 7.27921 79.81 7.26002L77.93 3.26002C77.7651 2.88546 77.4949 2.56692 77.1522 2.34321C76.8096 2.11949 76.4092 2.00025 76 2.00002C75.5955 1.99835 75.1991 2.11353 74.8585 2.33173C74.5179 2.54993 74.2476 2.86186 74.08 3.23002L72.2 7.23002C72.1897 7.24952 72.1756 7.26669 72.1584 7.28046C72.1411 7.29423 72.1213 7.30429 72.1 7.31002L67.82 8.00002C67.4321 8.05781 67.0678 8.22206 66.7677 8.47452C66.4676 8.72698 66.2434 9.05774 66.12 9.43002C65.9973 9.8029 65.979 10.2023 66.0672 10.5848C66.1553 10.9673 66.3465 11.3184 66.62 11.6L69.78 14.85C69.7891 14.8705 69.7938 14.8926 69.7938 14.915C69.7938 14.9374 69.7891 14.9596 69.78 14.98L69.04 19.52C68.9712 19.9154 69.0161 20.3222 69.1693 20.6931C69.3226 21.064 69.578 21.3838 69.9058 21.6152C70.2337 21.8467 70.6205 21.9804 71.0213 22.0007C71.4221 22.021 71.8204 21.9272 72.17 21.73L75.9 19.66C75.9185 19.6504 75.9391 19.6453 75.96 19.6453C75.9809 19.6453 76.0015 19.6504 76.02 19.66L79.75 21.73C80.1 21.9229 80.4973 22.0134 80.8963 21.9913C81.2954 21.9691 81.6801 21.835 82.0066 21.6045C82.3331 21.374 82.5881 21.0563 82.7426 20.6877C82.897 20.319 82.9446 19.9144 82.88 19.52L82.19 15C82.1795 14.9818 82.1739 14.9611 82.1739 14.94C82.1739 14.919 82.1795 14.8983 82.19 14.88L85.39 11.6Z" fill="#FF754C"/>
<path d="M117.39 11.6C117.665 11.3192 117.856 10.9676 117.943 10.5845C118.029 10.2013 118.007 9.80161 117.88 9.43002C117.761 9.05733 117.539 8.72569 117.24 8.47288C116.941 8.22006 116.577 8.05622 116.19 8.00002L111.9 7.34002C111.88 7.33422 111.862 7.32403 111.846 7.31019C111.83 7.29635 111.818 7.27921 111.81 7.26002L109.93 3.26002C109.765 2.88546 109.495 2.56692 109.152 2.34321C108.81 2.11949 108.409 2.00025 108 2.00002C107.596 1.99835 107.199 2.11353 106.859 2.33173C106.518 2.54993 106.248 2.86186 106.08 3.23002L104.2 7.23002C104.19 7.24952 104.176 7.26669 104.158 7.28046C104.141 7.29423 104.121 7.30429 104.1 7.31002L99.8201 8.00002C99.4322 8.05781 99.0679 8.22206 98.7678 8.47452C98.4676 8.72698 98.2434 9.05774 98.1201 9.43002C97.9974 9.8029 97.9791 10.2023 98.0672 10.5848C98.1554 10.9673 98.3466 11.3184 98.6201 11.6L101.78 14.85C101.789 14.8705 101.794 14.8926 101.794 14.915C101.794 14.9374 101.789 14.9596 101.78 14.98L101.04 19.52C100.971 19.9154 101.016 20.3222 101.169 20.6931C101.323 21.064 101.578 21.3838 101.906 21.6152C102.234 21.8467 102.621 21.9804 103.021 22.0007C103.422 22.021 103.82 21.9272 104.17 21.73L107.9 19.66C107.919 19.6504 107.939 19.6453 107.96 19.6453C107.981 19.6453 108.002 19.6504 108.02 19.66L111.75 21.73C112.1 21.9229 112.497 22.0134 112.896 21.9913C113.295 21.9691 113.68 21.835 114.007 21.6045C114.333 21.374 114.588 21.0563 114.743 20.6877C114.897 20.319 114.945 19.9144 114.88 19.52L114.19 15C114.18 14.9818 114.174 14.9611 114.174 14.94C114.174 14.919 114.18 14.8983 114.19 14.88L117.39 11.6Z" fill="#FF754C"/>
<path d="M149.39 11.6C149.665 11.3192 149.856 10.9676 149.943 10.5845C150.029 10.2013 150.007 9.80161 149.88 9.43002C149.761 9.05733 149.539 8.72569 149.24 8.47288C148.941 8.22006 148.577 8.05622 148.19 8.00002L143.9 7.34002C143.88 7.33422 143.862 7.32403 143.846 7.31019C143.83 7.29635 143.818 7.27921 143.81 7.26002L141.93 3.26002C141.765 2.88546 141.495 2.56692 141.152 2.34321C140.81 2.11949 140.409 2.00025 140 2.00002C139.596 1.99835 139.199 2.11353 138.859 2.33173C138.518 2.54993 138.248 2.86186 138.08 3.23002L136.2 7.23002C136.19 7.24952 136.176 7.26669 136.158 7.28046C136.141 7.29423 136.121 7.30429 136.1 7.31002L131.82 8.00002C131.432 8.05781 131.068 8.22206 130.768 8.47452C130.468 8.72698 130.243 9.05774 130.12 9.43002C129.997 9.8029 129.979 10.2023 130.067 10.5848C130.155 10.9673 130.347 11.3184 130.62 11.6L133.78 14.85C133.789 14.8705 133.794 14.8926 133.794 14.915C133.794 14.9374 133.789 14.9596 133.78 14.98L133.04 19.52C132.971 19.9154 133.016 20.3222 133.169 20.6931C133.323 21.064 133.578 21.3838 133.906 21.6152C134.234 21.8467 134.621 21.9804 135.021 22.0007C135.422 22.021 135.82 21.9272 136.17 21.73L139.9 19.66C139.919 19.6504 139.939 19.6453 139.96 19.6453C139.981 19.6453 140.002 19.6504 140.02 19.66L143.75 21.73C144.1 21.9229 144.497 22.0134 144.896 21.9913C145.295 21.9691 145.68 21.835 146.007 21.6045C146.333 21.374 146.588 21.0563 146.743 20.6877C146.897 20.319 146.945 19.9144 146.88 19.52L146.19 15C146.18 14.9818 146.174 14.9611 146.174 14.94C146.174 14.919 146.18 14.8983 146.19 14.88L149.39 11.6Z" fill="#FF754C"/>
</svg>
